<svg id="Слой_1" data-name="Слой 1" xmlns="http://www.w3.org/2000/svg" viewBox="0 0 3191.95 2981.46"><defs><style>.cls-1{fill:#13292d;}.cls-2{fill:#dbdbdb;}.cls-3{fill:#b6b660;}.cls-4{fill:#161616;}.cls-5{fill:none;stroke:#161616;stroke-miterlimit:10;stroke-width:200px;}</style></defs><g id="Слой_7" data-name="Слой 7"><polygon id="blue_up" data-name="blue up" class="cls-1" points="726.24 812.46 1900.95 121.54 2459.68 484.46 2459.68 1033.06 726.24 1141.06 726.24 812.46"/><polygon id="blue_beak" data-name="blue beak" class="cls-1" points="334.24 1492.96 645.24 1313.46 645.24 1676.74 334.24 1492.96"/><polygon id="blue_bottom" data-name="blue bottom" class="cls-1" points="778.24 1797.46 778.24 2177.86 1336.24 2488.46 1630.24 2275.46 778.24 1797.46"/><polygon id="white" class="cls-2" points="778.24 1205.46 778.24 1676.74 1774.24 2241.46 2459.68 1797.46 2459.68 1093.96 778.24 1205.46"/><polygon id="yellow" class="cls-3" points="2592.24 565.46 3058.24 835.46 3058.24 2142.96 1901.24 2811.46 1451.68 2516.46 2569.24 1884.46 2592.24 565.46"/></g><g id="contur"><path class="cls-4" d="M1901,230.94l1091,629.9V2120.63L1901,2750.52,810,2120.63V860.84l1091-629.9M1901,0,610,745.37V2236.1l1291,745.36L3192,2236.1V745.37L1901,0Z"/><polyline class="cls-5" points="2520.24 484.46 2520.24 1853.66 1378.24 2516.46"/><polyline class="cls-5" points="659.24 1757.46 199.24 1492.46 690.24 1205.46"/><line class="cls-5" x1="795.24" y1="1159.46" x2="2520.24" y2="1028.46"/><line class="cls-5" x1="712.24" y1="1682.46" x2="1720.24" y2="2264.46"/></g></svg>